<?xml version="1.0" encoding="iso-8859-1"?>
<!-- Generator: Adobe Illustrator 16.0.0, SVG Export Plug-In . SVG Version: 6.00 Build 0)  -->
<!DOCTYPE svg PUBLIC "-//W3C//DTD SVG 1.1//EN" "http://www.w3.org/Graphics/SVG/1.1/DTD/svg11.dtd">
<svg version="1.1" id="Capa_1" xmlns="http://www.w3.org/2000/svg" xmlns:xlink="http://www.w3.org/1999/xlink" x="0px" y="0px"
	 width="225.275px" height="225.275px" viewBox="0 0 225.275 225.275" style="enable-background:new 0 0 225.275 225.275;"
	 xml:space="preserve">
<g>
	<g id="_x31_10_38_">
		<g>
			<polygon points="173.739,120.898 150.781,120.898 150.781,168.925 172.799,168.925 173.739,168.925 219.587,168.925 
				219.587,129.179 173.739,129.179 			"/>
			<polygon points="181.66,122.609 181.66,115.977 181.66,113.778 181.66,112.64 156.113,112.64 156.113,115.977 178.568,115.977 
				178.568,122.609 178.568,125.3 178.568,125.792 222.142,125.792 222.142,154.494 221.07,154.494 221.07,157.672 222.142,157.672 
				223.512,157.672 225.275,157.672 225.275,125.792 225.275,123.228 225.275,122.609 			"/>
			<path d="M176.419,90.531c1.193,0,2.377,0.099,3.555,0.175c0.168-1.173,0.295-2.354,0.36-3.545
				c-1.162-21.497-16.463-36.785-37.942-37.942c-12.608-0.678-23.117,5.756-29.861,15.168c-6.733-8.871-17.217-14.482-29.878-15.168
				C61.213,48.064,45.786,67.418,44.72,87.162c-0.12,2.537,0.041,4.977,0.437,7.338c-1.34-0.193-2.709-0.325-4.103-0.401
				c-23.176-1.249-39.852,19.67-41,41.003c-1.181,21.805,17.263,37.851,37.219,40.623v0.381h101.682
				c-8.39-9.095-13.559-21.205-13.559-34.556C125.391,113.372,148.242,90.531,176.419,90.531z"/>
		</g>
	</g>
</g>
<g>
</g>
<g>
</g>
<g>
</g>
<g>
</g>
<g>
</g>
<g>
</g>
<g>
</g>
<g>
</g>
<g>
</g>
<g>
</g>
<g>
</g>
<g>
</g>
<g>
</g>
<g>
</g>
<g>
</g>
</svg>
