<?xml version="1.0" encoding="iso-8859-1"?>
<!-- Generator: Adobe Illustrator 19.0.0, SVG Export Plug-In . SVG Version: 6.00 Build 0)  -->
<svg version="1.1" id="Capa_1" xmlns="http://www.w3.org/2000/svg" xmlns:xlink="http://www.w3.org/1999/xlink" x="0px" y="0px"
	 viewBox="0 0 474.557 474.557" style="enable-background:new 0 0 474.557 474.557;" xml:space="preserve">
<g>
	<g>
		<g>
			<path d="M430.801,35.247V0H12.975v439.332H14.7c3.904,16.092,15.66,35.225,42.257,35.225h404.625V35.247H430.801z
				 M404.398,26.381c0,6.752,0,38.784,0,81.732H39.313c0-42.947,0-74.958,0-81.732C63.105,26.381,380.606,26.381,404.398,26.381z
				 M39.313,127.203h365.085c0,109.407,0,269.635,0,285.813c-23.814,0-341.293,0-365.085,0
				C39.313,396.816,39.313,236.61,39.313,127.203z M435.266,448.219c-24.677,0-378.308,0-378.308,0
				c-8.132,0-12.468-4.314-14.819-8.887h388.662V61.563c1.898,0,3.494,0,4.465,0C435.266,85.507,435.266,424.297,435.266,448.219z"
				/>
			<rect x="237.85" y="150.693" width="132.768" height="26.359"/>
			<rect x="237.85" y="204.254" width="132.768" height="26.424"/>
			<rect x="237.85" y="257.836" width="132.768" height="26.467"/>
			<rect x="237.85" y="308.527" width="132.768" height="26.489"/>
			<rect x="237.85" y="362.109" width="132.768" height="26.424"/>
			<rect x="63.839" y="150.693" width="135.745" height="133.609"/>
			<rect x="147.512" y="43.573" width="157.078" height="46.96"/>
			<rect x="62.372" y="311.439" width="139.757" height="26.467"/>
			<rect x="62.372" y="364.956" width="139.757" height="26.446"/>
		</g>
	</g>
	<g>
	</g>
	<g>
	</g>
	<g>
	</g>
	<g>
	</g>
	<g>
	</g>
	<g>
	</g>
	<g>
	</g>
	<g>
	</g>
	<g>
	</g>
	<g>
	</g>
	<g>
	</g>
	<g>
	</g>
	<g>
	</g>
	<g>
	</g>
	<g>
	</g>
</g>
<g>
</g>
<g>
</g>
<g>
</g>
<g>
</g>
<g>
</g>
<g>
</g>
<g>
</g>
<g>
</g>
<g>
</g>
<g>
</g>
<g>
</g>
<g>
</g>
<g>
</g>
<g>
</g>
<g>
</g>
</svg>
