<?xml version="1.0" encoding="iso-8859-1"?>
<!-- Generator: Adobe Illustrator 19.0.0, SVG Export Plug-In . SVG Version: 6.00 Build 0)  -->
<svg version="1.1" id="Capa_1" xmlns="http://www.w3.org/2000/svg" xmlns:xlink="http://www.w3.org/1999/xlink" x="0px" y="0px"
	 viewBox="0 0 60 60" style="enable-background:new 0 0 60 60;" xml:space="preserve">
<g>
	<g>
		<path d="M59,0H33c-0.6,0-1,0.4-1,1v10v10v10c0,0.6,0.4,1,1,1h12v2H32v2h28v-2H47v-2h12c0.6,0,1-0.4,1-1V21V11V1
			C60,0.4,59.6,0,59,0z M34,12h24v8H34V12z M34,2h24v8H34V2z M58,30H34v-8h24V30z"/>
		<path d="M27,24H1c-0.6,0-1,0.4-1,1v10v10v10c0,0.6,0.4,1,1,1h12v2H0v2h28v-2H15v-2h12c0.6,0,1-0.4,1-1V45V35V25
			C28,24.4,27.6,24,27,24z M2,36h24v8H2V36z M2,26h24v8H2V26z M26,54H2v-8h24V54z"/>
		<rect x="36" y="4" width="2" height="4"/>
		<rect x="40" y="4" width="2" height="4"/>
		<rect x="44" y="4" width="2" height="4"/>
		<rect x="36" y="14" width="2" height="4"/>
		<rect x="40" y="14" width="2" height="4"/>
		<rect x="44" y="14" width="2" height="4"/>
		<rect x="50" y="5" width="2" height="2"/>
		<rect x="54" y="5" width="2" height="2"/>
		<rect x="50" y="15" width="2" height="2"/>
		<rect x="54" y="15" width="2" height="2"/>
		<rect x="45" y="25" width="6" height="2"/>
		<rect x="53" y="25" width="2" height="2"/>
		<rect x="41" y="25" width="2" height="2"/>
		<rect x="37" y="25" width="2" height="2"/>
		<rect x="4" y="28" width="2" height="4"/>
		<rect x="8" y="28" width="2" height="4"/>
		<rect x="12" y="28" width="2" height="4"/>
		<rect x="4" y="38" width="2" height="4"/>
		<rect x="8" y="38" width="2" height="4"/>
		<rect x="12" y="38" width="2" height="4"/>
		<rect x="18" y="29" width="2" height="2"/>
		<rect x="22" y="29" width="2" height="2"/>
		<rect x="18" y="39" width="2" height="2"/>
		<rect x="22" y="39" width="2" height="2"/>
		<rect x="17" y="49" width="2" height="2"/>
		<rect x="21" y="49" width="2" height="2"/>
		<rect x="5" y="49" width="6" height="2"/>
		<rect x="13" y="49" width="2" height="2"/>
		<path d="M45.3,39.3l-3,3l1.4,1.4l1.3-1.3V50H30v2h16c0.6,0,1-0.4,1-1v-8.6l1.3,1.3l1.4-1.4l-3-3C46.3,38.9,45.7,38.9,45.3,39.3z"
			/>
		<path d="M14,21c0.3,0,0.5-0.1,0.7-0.3l3-3l-1.4-1.4L15,17.6V10h15V8H14c-0.6,0-1,0.4-1,1v8.6l-1.3-1.3l-1.4,1.4l3,3
			C13.5,20.9,13.7,21,14,21z"/>
		<rect x="28" y="12" width="2" height="2"/>
		<rect x="24" y="12" width="2" height="2"/>
		<rect x="20" y="12" width="2" height="2"/>
		<rect x="20" y="16" width="2" height="2"/>
		<rect x="24" y="16" width="2" height="2"/>
		<rect x="28" y="16" width="2" height="2"/>
		<rect x="28" y="20" width="2" height="2"/>
		<rect x="24" y="20" width="2" height="2"/>
		<rect x="30" y="46" width="2" height="2"/>
		<rect x="34" y="46" width="2" height="2"/>
		<rect x="38" y="46" width="2" height="2"/>
		<rect x="38" y="42" width="2" height="2"/>
		<rect x="34" y="42" width="2" height="2"/>
		<rect x="30" y="42" width="2" height="2"/>
		<rect x="30" y="38" width="2" height="2"/>
		<rect x="34" y="38" width="2" height="2"/>
	</g>
</g>
<g>
</g>
<g>
</g>
<g>
</g>
<g>
</g>
<g>
</g>
<g>
</g>
<g>
</g>
<g>
</g>
<g>
</g>
<g>
</g>
<g>
</g>
<g>
</g>
<g>
</g>
<g>
</g>
<g>
</g>
</svg>
